<svg width="18" height="18" viewBox="0 0 18 18" fill="none" xmlns="http://www.w3.org/2000/svg">
<g clip-path="url(#clip0_16_418)">
<path d="M0.000244141 9.00008C0.000244141 11.387 0.948438 13.6761 2.63624 15.3639C4.32403 17.0517 6.61318 17.9999 9.00008 17.9999C11.387 17.9999 13.6761 17.0517 15.3639 15.3639C17.0517 13.6761 17.9999 11.387 17.9999 9.00008C17.9999 6.61318 17.0517 4.32403 15.3639 2.63624C13.6761 0.948438 11.387 0.000244141 9.00008 0.000244141C6.61318 0.000244141 4.32403 0.948438 2.63624 2.63624C0.948438 4.32403 0.000244141 6.61318 0.000244141 9.00008Z" fill="#4383F7"/>
<path d="M10.4693 6.0303C10.3986 5.9603 10.3443 5.8793 10.3063 5.7873C10.2683 5.6953 10.2493 5.59964 10.2493 5.50031C10.2493 5.45097 10.2539 5.40231 10.2633 5.35431C10.2733 5.30564 10.2876 5.25864 10.3063 5.21331C10.3249 5.16798 10.3483 5.12465 10.3763 5.08332C10.4029 5.04265 10.4339 5.00498 10.4693 4.97032C10.5039 4.93498 10.5416 4.90365 10.5823 4.87632C10.6236 4.84965 10.6669 4.82665 10.7123 4.80732C10.7576 4.78865 10.8043 4.77432 10.8523 4.76432C10.9009 4.75499 10.9499 4.75032 10.9993 4.75032C11.0993 4.75032 11.1949 4.76932 11.2863 4.80732C11.3783 4.84532 11.4593 4.89965 11.5293 4.97032L13.5292 6.97028C13.5999 7.04028 13.6542 7.12128 13.6922 7.21328C13.7302 7.30527 13.7492 7.40094 13.7492 7.50027C13.7492 7.5496 13.7446 7.59827 13.7352 7.64627C13.7252 7.69493 13.7109 7.74193 13.6922 7.78727C13.6736 7.8326 13.6502 7.87593 13.6222 7.91726C13.5956 7.95793 13.5646 7.9956 13.5292 8.03026C13.4946 8.06559 13.4569 8.09693 13.4162 8.12426C13.3749 8.15093 13.3316 8.17393 13.2862 8.19326C13.2409 8.21193 13.1942 8.22626 13.1462 8.23626C13.0976 8.24559 13.0486 8.25026 12.9992 8.25026H4.99938C4.95004 8.25026 4.90138 8.24559 4.85338 8.23626C4.80471 8.22626 4.75771 8.21193 4.71238 8.19326C4.66705 8.17459 4.62372 8.15126 4.58238 8.12326C4.54172 8.09659 4.50405 8.06559 4.46939 8.03026C4.43405 7.9956 4.40272 7.95793 4.37539 7.91726C4.34872 7.87593 4.32572 7.8326 4.30639 7.78727C4.28772 7.74193 4.27339 7.69527 4.26339 7.64727C4.25406 7.5986 4.24939 7.5496 4.24939 7.50027C4.24939 7.45094 4.25406 7.40227 4.26339 7.35427C4.27339 7.30561 4.28772 7.25861 4.30639 7.21328C4.32505 7.16794 4.34839 7.12461 4.37639 7.08328C4.40305 7.04261 4.43405 7.00495 4.46939 6.97028C4.50405 6.93495 4.54172 6.90361 4.58238 6.87628C4.62372 6.84962 4.66705 6.82662 4.71238 6.80728C4.75771 6.78862 4.80438 6.77428 4.85238 6.76428C4.90104 6.75495 4.95004 6.75029 4.99938 6.75029H11.1893L10.4693 6.0303Z" fill="#FDFFFE"/>
<path d="M7.52933 11.9698C7.6 12.0398 7.65433 12.1208 7.69233 12.2128C7.73033 12.3048 7.74933 12.4004 7.74933 12.4998C7.74933 12.5491 7.74466 12.5978 7.73533 12.6458C7.72533 12.6944 7.71099 12.7414 7.69233 12.7868C7.67366 12.8321 7.65033 12.8754 7.62233 12.9168C7.59566 12.9574 7.56466 12.9951 7.52933 13.0298C7.49466 13.0651 7.457 13.0964 7.41633 13.1238C7.375 13.1504 7.33167 13.1734 7.28633 13.1928C7.241 13.2114 7.19434 13.2258 7.14634 13.2358C7.09767 13.2451 7.04867 13.2498 6.99934 13.2498C6.89934 13.2498 6.80368 13.2308 6.71235 13.1928C6.62035 13.1548 6.53935 13.1004 6.46935 13.0298L4.46939 11.0298C4.39872 10.9598 4.34439 10.8788 4.30639 10.7868C4.26839 10.6948 4.24939 10.5991 4.24939 10.4998C4.24939 10.4505 4.25406 10.4018 4.26339 10.3538C4.27339 10.3051 4.28772 10.2581 4.30639 10.2128C4.32505 10.1675 4.34839 10.1241 4.37639 10.0828C4.40305 10.0422 4.43405 10.0045 4.46939 9.96982C4.50405 9.93449 4.54172 9.90316 4.58238 9.87582C4.62372 9.84916 4.66705 9.82616 4.71238 9.80682C4.75771 9.78816 4.80438 9.77382 4.85238 9.76382C4.90104 9.75449 4.95004 9.74982 4.99938 9.74982H12.9992C13.0486 9.74982 13.0972 9.75449 13.1452 9.76382C13.1939 9.77382 13.2409 9.78816 13.2862 9.80682C13.3316 9.82549 13.3749 9.84882 13.4162 9.87682C13.4569 9.90349 13.4946 9.93449 13.5292 9.96982C13.5646 10.0045 13.5959 10.0422 13.6232 10.0828C13.6499 10.1241 13.6729 10.1675 13.6922 10.2128C13.7109 10.2581 13.7252 10.3048 13.7352 10.3528C13.7446 10.4015 13.7492 10.4505 13.7492 10.4998C13.7492 10.5491 13.7446 10.5978 13.7352 10.6458C13.7252 10.6945 13.7109 10.7415 13.6922 10.7868C13.6736 10.8321 13.6502 10.8755 13.6222 10.9168C13.5956 10.9575 13.5646 10.9951 13.5292 11.0298C13.4946 11.0651 13.4569 11.0965 13.4162 11.1238C13.3749 11.1505 13.3316 11.1735 13.2862 11.1928C13.2409 11.2115 13.1942 11.2258 13.1462 11.2358C13.0976 11.2451 13.0486 11.2498 12.9992 11.2498H6.80934L7.52933 11.9698Z" fill="#D9D9D9"/>
</g>
<defs>
<clipPath id="clip0_16_418">
<rect width="18" height="18" fill="white"/>
</clipPath>
</defs>
</svg>
