<svg width="224" height="226" viewBox="0 0 224 226" fill="none" xmlns="http://www.w3.org/2000/svg">
<path d="M10.3334 46.2C10.3334 25.655 26.9884 9 47.5334 9H143.633V49.3C143.633 65.2794 156.587 78.2333 172.567 78.2333H212.867V188.8C212.867 209.345 196.212 226 175.667 226H47.5334C26.9884 226 10.3334 209.345 10.3334 188.8V46.2Z" fill="url(#paint0_linear_35_1254)"/>
<g filter="url(#filter0_di_35_1254)">
<path d="M212.867 78.2333L143.633 9V49.3C143.633 65.2794 156.587 78.2333 172.567 78.2333H212.867Z" fill="#FFE68D"/>
</g>
<g filter="url(#filter1_i_35_1254)">
<rect y="116.634" width="223.2" height="80.6" rx="16.5333" fill="#FFAC26" fill-opacity="0.33"/>
</g>
<rect x="62" y="46.3678" width="72.3333" height="39.2667" rx="10.3333" fill="#FFC850"/>
<rect x="33.0667" y="29.8345" width="72.3333" height="39.2667" rx="10.3333" fill="#FFE184"/>
<path d="M57.391 178.834V136.75H73.9948C77.1868 136.75 79.9062 137.359 82.1529 138.579C84.3996 139.784 86.112 141.462 87.2902 143.613C88.482 145.75 89.078 148.216 89.078 151.011C89.078 153.805 88.4752 156.271 87.2696 158.409C86.0641 160.546 84.3174 162.21 82.0296 163.402C79.7555 164.594 77.0019 165.19 73.7688 165.19H63.1859V158.059H72.3303C74.0428 158.059 75.4538 157.765 76.5635 157.176C77.6868 156.573 78.5225 155.744 79.0705 154.689C79.6322 153.621 79.913 152.394 79.913 151.011C79.913 149.613 79.6322 148.394 79.0705 147.353C78.5225 146.298 77.6868 145.483 76.5635 144.908C75.4401 144.319 74.0154 144.024 72.2892 144.024H66.2889V178.834H57.391ZM109.776 178.834H94.8574V136.75H109.899C114.133 136.75 117.777 137.592 120.832 139.277C123.887 140.949 126.236 143.353 127.88 146.49C129.538 149.627 130.367 153.381 130.367 157.751C130.367 162.135 129.538 165.902 127.88 169.053C126.236 172.204 123.873 174.622 120.791 176.307C117.722 177.992 114.05 178.834 109.776 178.834ZM103.755 171.211H109.406C112.037 171.211 114.249 170.745 116.044 169.813C117.852 168.868 119.208 167.409 120.112 165.436C121.03 163.45 121.489 160.888 121.489 157.751C121.489 154.641 121.03 152.1 120.112 150.127C119.208 148.154 117.859 146.702 116.064 145.771C114.27 144.839 112.057 144.373 109.427 144.373H103.755V171.211ZM136.958 178.834V136.75H164.822V144.086H145.856V154.114H162.973V161.45H145.856V178.834H136.958Z" fill="white"/>
<defs>
<filter id="filter0_di_35_1254" x="127.1" y="0.733334" width="94.0333" height="94.0333" filterUnits="userSpaceOnUse" color-interpolation-filters="sRGB">
<feFlood flood-opacity="0" result="BackgroundImageFix"/>
<feColorMatrix in="SourceAlpha" type="matrix" values="0 0 0 0 0 0 0 0 0 0 0 0 0 0 0 0 0 0 127 0" result="hardAlpha"/>
<feOffset dx="-4.13333" dy="4.13333"/>
<feGaussianBlur stdDeviation="6.2"/>
<feComposite in2="hardAlpha" operator="out"/>
<feColorMatrix type="matrix" values="0 0 0 0 0 0 0 0 0 0 0 0 0 0 0 0 0 0 0.1 0"/>
<feBlend mode="normal" in2="BackgroundImageFix" result="effect1_dropShadow_35_1254"/>
<feBlend mode="normal" in="SourceGraphic" in2="effect1_dropShadow_35_1254" result="shape"/>
<feColorMatrix in="SourceAlpha" type="matrix" values="0 0 0 0 0 0 0 0 0 0 0 0 0 0 0 0 0 0 127 0" result="hardAlpha"/>
<feOffset dx="4.13333" dy="8.26667"/>
<feGaussianBlur stdDeviation="5.16667"/>
<feComposite in2="hardAlpha" operator="arithmetic" k2="-1" k3="1"/>
<feColorMatrix type="matrix" values="0 0 0 0 1 0 0 0 0 1 0 0 0 0 1 0 0 0 0.25 0"/>
<feBlend mode="normal" in2="shape" result="effect2_innerShadow_35_1254"/>
</filter>
<filter id="filter1_i_35_1254" x="0" y="116.634" width="223.2" height="80.6" filterUnits="userSpaceOnUse" color-interpolation-filters="sRGB">
<feFlood flood-opacity="0" result="BackgroundImageFix"/>
<feBlend mode="normal" in="SourceGraphic" in2="BackgroundImageFix" result="shape"/>
<feColorMatrix in="SourceAlpha" type="matrix" values="0 0 0 0 0 0 0 0 0 0 0 0 0 0 0 0 0 0 127 0" result="hardAlpha"/>
<feMorphology radius="10.3333" operator="erode" in="SourceAlpha" result="effect1_innerShadow_35_1254"/>
<feOffset/>
<feGaussianBlur stdDeviation="6.2"/>
<feComposite in2="hardAlpha" operator="arithmetic" k2="-1" k3="1"/>
<feColorMatrix type="matrix" values="0 0 0 0 1 0 0 0 0 1 0 0 0 0 1 0 0 0 0.37 0"/>
<feBlend mode="normal" in2="shape" result="effect1_innerShadow_35_1254"/>
</filter>
<linearGradient id="paint0_linear_35_1254" x1="10.3334" y1="9" x2="212.867" y2="226" gradientUnits="userSpaceOnUse">
<stop stop-color="#FFD557"/>
<stop offset="1" stop-color="#FF8C00"/>
</linearGradient>
</defs>
</svg>
