<svg width="231" height="245" viewBox="0 0 231 245" fill="none" xmlns="http://www.w3.org/2000/svg">
<path d="M39.7946 36.6933C43.1643 16.4281 62.3241 2.73168 82.5893 6.10139L167.527 20.2249L194.007 24.628C214.272 27.9977 227.968 47.1575 224.599 67.4226L219.354 98.9661L201.238 207.912C197.868 228.178 178.708 241.874 158.443 238.504L47.0258 219.978C26.7607 216.608 13.0642 197.448 16.4339 177.183L39.7946 36.6933Z" fill="#57FF9F"/>
<path d="M0 59.761C0 39.2176 16.6537 22.5638 37.1971 22.5638H133.29V62.8607C133.29 78.8389 146.242 91.7918 162.221 91.7918H202.518V202.35C202.518 222.893 185.864 239.547 165.32 239.547H37.1971C16.6537 239.547 0 222.893 0 202.35V59.761Z" fill="url(#paint0_linear_35_1241)"/>
<g filter="url(#filter0_di_35_1241)">
<path d="M202.517 91.7918L133.29 22.5638V62.8607C133.29 78.8389 146.242 91.7918 162.221 91.7918H202.517Z" fill="url(#paint1_linear_35_1241)" shape-rendering="crispEdges"/>
</g>
<g filter="url(#filter1_d_35_1241)">
<path d="M116.758 137.458C112.625 135.071 112.625 129.106 116.758 126.72L147.755 108.823C151.888 106.437 157.054 109.42 157.054 114.192L157.054 149.985C157.054 154.757 151.888 157.74 147.755 155.354L116.758 137.458Z" fill="url(#paint2_linear_35_1241)"/>
<rect x="57.8622" y="94.8915" width="76.4607" height="72.3277" rx="16.532" fill="white"/>
</g>
<defs>
<filter id="filter0_di_35_1241" x="116.758" y="14.2978" width="94.026" height="94.026" filterUnits="userSpaceOnUse" color-interpolation-filters="sRGB">
<feFlood flood-opacity="0" result="BackgroundImageFix"/>
<feColorMatrix in="SourceAlpha" type="matrix" values="0 0 0 0 0 0 0 0 0 0 0 0 0 0 0 0 0 0 127 0" result="hardAlpha"/>
<feOffset dx="-4.13301" dy="4.13301"/>
<feGaussianBlur stdDeviation="6.19952"/>
<feComposite in2="hardAlpha" operator="out"/>
<feColorMatrix type="matrix" values="0 0 0 0 0 0 0 0 0 0 0 0 0 0 0 0 0 0 0.1 0"/>
<feBlend mode="normal" in2="BackgroundImageFix" result="effect1_dropShadow_35_1241"/>
<feBlend mode="normal" in="SourceGraphic" in2="effect1_dropShadow_35_1241" result="shape"/>
<feColorMatrix in="SourceAlpha" type="matrix" values="0 0 0 0 0 0 0 0 0 0 0 0 0 0 0 0 0 0 127 0" result="hardAlpha"/>
<feOffset dx="4.13301" dy="8.26602"/>
<feGaussianBlur stdDeviation="5.16626"/>
<feComposite in2="hardAlpha" operator="arithmetic" k2="-1" k3="1"/>
<feColorMatrix type="matrix" values="0 0 0 0 1 0 0 0 0 1 0 0 0 0 1 0 0 0 0.25 0"/>
<feBlend mode="normal" in2="shape" result="effect2_innerShadow_35_1241"/>
</filter>
<filter id="filter1_d_35_1241" x="49.5962" y="88.692" width="115.724" height="88.8598" filterUnits="userSpaceOnUse" color-interpolation-filters="sRGB">
<feFlood flood-opacity="0" result="BackgroundImageFix"/>
<feColorMatrix in="SourceAlpha" type="matrix" values="0 0 0 0 0 0 0 0 0 0 0 0 0 0 0 0 0 0 127 0" result="hardAlpha"/>
<feOffset dy="2.06651"/>
<feGaussianBlur stdDeviation="4.13301"/>
<feComposite in2="hardAlpha" operator="out"/>
<feColorMatrix type="matrix" values="0 0 0 0 0.224825 0 0 0 0 0.821094 0 0 0 0 0.480369 0 0 0 0.6 0"/>
<feBlend mode="normal" in2="BackgroundImageFix" result="effect1_dropShadow_35_1241"/>
<feBlend mode="normal" in="SourceGraphic" in2="effect1_dropShadow_35_1241" result="shape"/>
</filter>
<linearGradient id="paint0_linear_35_1241" x1="0" y1="22.5638" x2="202.518" y2="239.547" gradientUnits="userSpaceOnUse">
<stop stop-color="#F4FFF8"/>
<stop offset="0.5" stop-color="#57FF9F" stop-opacity="0.2"/>
<stop offset="1" stop-color="white"/>
</linearGradient>
<linearGradient id="paint1_linear_35_1241" x1="133.29" y1="22.5638" x2="197.444" y2="96.211" gradientUnits="userSpaceOnUse">
<stop stop-color="white" stop-opacity="0.69"/>
<stop offset="0.5" stop-color="white" stop-opacity="0"/>
<stop offset="1" stop-color="white" stop-opacity="0.68"/>
</linearGradient>
<linearGradient id="paint2_linear_35_1241" x1="107.458" y1="132.089" x2="173.586" y2="132.089" gradientUnits="userSpaceOnUse">
<stop stop-color="white" stop-opacity="0"/>
<stop offset="0.677413" stop-color="white"/>
<stop offset="1" stop-color="white"/>
</linearGradient>
</defs>
</svg>
