<svg width="20" height="20" viewBox="0 0 20 20" fill="none" xmlns="http://www.w3.org/2000/svg">
<g clip-path="url(#clip0_16_618)">
<path d="M2.66403 4.79531C2.5827 4.70581 2.52909 4.59464 2.50968 4.47527C2.49028 4.35591 2.50592 4.23348 2.55472 4.12283C2.60351 4.01218 2.68336 3.91806 2.78457 3.85188C2.88579 3.7857 3.00403 3.75031 3.12497 3.75H16.875C16.996 3.75001 17.1145 3.78518 17.2159 3.85124C17.3174 3.9173 17.3975 4.0114 17.4465 4.12212C17.4954 4.23283 17.5112 4.35538 17.4919 4.47489C17.4725 4.5944 17.4189 4.70571 17.3375 4.79531L12.0453 10.4445C11.9368 10.5604 11.8765 10.7132 11.8765 10.8719V15.207C11.8766 15.31 11.8512 15.4113 11.8027 15.5021C11.7542 15.5928 11.684 15.6702 11.5984 15.7273L9.0984 17.3937C9.00435 17.4569 8.8949 17.4933 8.78175 17.4991C8.6686 17.5048 8.55602 17.4797 8.45603 17.4265C8.35605 17.3732 8.27243 17.2937 8.21412 17.1966C8.1558 17.0995 8.12499 16.9883 8.12497 16.875V10.8719C8.12501 10.7132 8.06468 10.5604 7.95622 10.4445L2.66403 4.79531Z" fill="#4383F7"/>
</g>
<defs>
<clipPath id="clip0_16_618">
<rect width="20" height="20" fill="white"/>
</clipPath>
</defs>
</svg>
