<svg width="41" height="41" viewBox="0 0 41 41" fill="none" xmlns="http://www.w3.org/2000/svg">
<path d="M7.2066 26.4219C7.2066 31.8617 11.6164 36.2715 17.0561 36.2715V16.5724C11.6164 16.5724 7.2066 20.9822 7.2066 26.4219Z" fill="#4383F7"/>
<path d="M7.2066 26.4218C7.2066 31.8615 11.6164 36.2713 17.0561 36.2713V34.0355C14.8707 34.1161 9.8412 32.7062 7.2066 26.4218Z" fill="#1866D3"/>
<path d="M18.9291 26.4219C24.3689 26.4219 28.7787 22.0121 28.7787 16.5724H18.9291V26.4219Z" fill="#F9BE0F"/>
<path d="M18.9291 26.4219C24.3689 26.4219 28.7787 22.0121 28.7787 16.5724H26.422C26.5127 19.4729 25.7271 24.3976 18.9291 26.4219Z" fill="#E64930"/>
<path fill-rule="evenodd" clip-rule="evenodd" d="M16.9956 4.72857C11.5837 4.76108 7.20654 9.1585 7.20654 14.5781C7.20654 16.0684 7.53752 17.4813 8.12998 18.7475C9.68403 16.8441 11.799 14.5781 17.0561 14.5781H26.9056H28.3558H28.4767V14.5774C33.8607 14.5126 38.2054 10.128 38.2054 4.72857H28.4767H18.5063H17.0561C17.0359 4.72857 17.0158 4.72845 16.9956 4.72857Z" fill="#33A754"/>
<path d="M8.12952 18.7477C9.68357 16.8443 11.7985 14.5783 17.0556 14.5783H26.9051H28.3554H28.4762V14.5776C30.804 14.5496 32.9374 13.7141 34.6095 12.3383H17.0556C13.3696 12.3383 8.12952 14.0043 8.12952 18.7477Z" fill="#188235"/>
</svg>
