<svg width="103" height="103" viewBox="0 0 103 103" fill="none" xmlns="http://www.w3.org/2000/svg">
<path d="M18.1045 66.377C18.1045 80.0427 29.1827 91.1209 42.8484 91.1209V41.6331C29.1827 41.6331 18.1045 52.7113 18.1045 66.377Z" fill="#4383F7"/>
<path d="M18.1045 66.3766C18.1045 80.0423 29.1827 91.1205 42.8484 91.1205V85.5036C37.3582 85.7062 24.7231 82.1642 18.1045 66.3766Z" fill="#1866D3"/>
<path d="M47.5538 66.377C61.2195 66.377 72.2978 55.2988 72.2978 41.6331H47.5538V66.377Z" fill="#F9BE0F"/>
<path d="M47.5538 66.377C61.2195 66.377 72.2978 55.2988 72.2978 41.6331H66.3774C66.6052 48.9197 64.6317 61.2914 47.5538 66.377Z" fill="#E64930"/>
<path fill-rule="evenodd" clip-rule="evenodd" d="M42.6963 11.879C29.1005 11.9607 18.1042 23.0079 18.1042 36.623C18.1042 40.3668 18.9357 43.9165 20.4241 47.0974C24.3282 42.3156 29.6413 36.623 42.8482 36.623H67.5921H71.2354H71.539V36.6212C85.0648 36.4585 95.9793 25.4434 95.9793 11.879H71.539H46.4914H42.8482C42.7975 11.879 42.7469 11.8787 42.6963 11.879Z" fill="#33A754"/>
<path d="M20.4229 47.0979C24.3269 42.3161 29.6401 36.6234 42.8469 36.6234H67.5909H71.2341H71.5378V36.6216C77.3855 36.5513 82.7452 34.4524 86.9458 30.996H42.8469C33.5869 30.996 20.4229 35.1814 20.4229 47.0979Z" fill="#188235"/>
</svg>
