<svg width="21" height="21" viewBox="0 0 21 21" fill="none" xmlns="http://www.w3.org/2000/svg">
<path d="M9.29906 10.5L3.31144 4.5124C3.15218 4.35315 3.06271 4.13715 3.06271 3.91194C3.06271 3.80042 3.08468 3.68999 3.12735 3.58696C3.17003 3.48394 3.23258 3.39032 3.31144 3.31147C3.39029 3.23261 3.4839 3.17006 3.58693 3.12738C3.68996 3.08471 3.80039 3.06274 3.9119 3.06274C4.13712 3.06274 4.35312 3.15221 4.51237 3.31147L10.5 9.29909L16.4876 3.31147C16.5665 3.23261 16.6601 3.17006 16.7631 3.12738C16.8661 3.08471 16.9766 3.06274 17.0881 3.06274C17.1996 3.06274 17.31 3.08471 17.4131 3.12738C17.5161 3.17006 17.6097 3.23261 17.6886 3.31147C17.7674 3.39032 17.83 3.48394 17.8726 3.58696C17.9153 3.68999 17.9373 3.80042 17.9373 3.91194C17.9373 4.02345 17.9153 4.13388 17.8726 4.23691C17.83 4.33994 17.7674 4.43355 17.6886 4.5124L11.7009 10.5L17.6886 16.4877C17.8478 16.6469 17.9373 16.8629 17.9373 17.0881C17.9373 17.3133 17.8478 17.5293 17.6886 17.6886C17.5293 17.8478 17.3133 17.9373 17.0881 17.9373C16.8629 17.9373 16.6469 17.8478 16.4876 17.6886L10.5 11.701L4.51237 17.6886C4.35312 17.8478 4.13712 17.9373 3.9119 17.9373C3.68669 17.9373 3.47069 17.8478 3.31144 17.6886C3.15218 17.5293 3.06271 17.3133 3.06271 17.0881C3.06271 16.8629 3.15218 16.6469 3.31144 16.4877L9.29906 10.5Z" fill="#DCDCDC"/>
</svg>
