<svg width="12" height="8" viewBox="0 0 12 8" fill="none" xmlns="http://www.w3.org/2000/svg">
<path d="M9.54213 1.06881C9.68243 1.06618 9.82058 1.10355 9.94042 1.17655C10.0603 1.24956 10.1568 1.35518 10.2188 1.48106C10.2808 1.60694 10.3057 1.74788 10.2906 1.88738C10.2754 2.02688 10.2208 2.15918 10.1332 2.26881L10.1066 2.30103L5.99102 6.93103C5.92274 7.00831 5.83907 7.07049 5.74539 7.11359C5.6517 7.15669 5.55004 7.17977 5.44693 7.18133C5.34381 7.1829 5.2415 7.16293 5.14655 7.1227C5.05159 7.08247 4.96607 7.02287 4.89547 6.9477L4.86769 6.9177L1.02547 2.28881C0.936018 2.18415 0.877587 2.05658 0.856766 1.92049C0.835944 1.7844 0.85356 1.6452 0.907626 1.51858C0.961691 1.39196 1.05006 1.28297 1.16276 1.20389C1.27546 1.12482 1.40801 1.0788 1.54547 1.07103H9.54213V1.06881Z" fill="#232325"/>
</svg>
